#!OML:ASF H:\MichaelJackson\Top Level 1\Subject 1\Session 1\male.ASF
:FULLY-SPECIFIED
:DEGREES
445
root 1.47394 16.9059 -7.49042 12.258 -4.31711 -3.49808
lowerback 9.95809 -0.801698 -3.58039
upperback 3.24126 -1.50033 -3.0898
thorax -2.20135 -0.742581 -1.01309
lowerneck -7.83437 2.553 6.16551
upperneck 0.654304 2.77604 1.62507
head 1.60034 1.4513 -0.429932
rclavicle 1.98785e-014 3.33958e-014
rhumerus -33.1649 7.67299 -102.728
rradius 63.9656
rwrist -3.47977
rhand -37.0312 -29.8459
rfingers 7.12502
rthumb -10.1047 300.417
lclavicle 1.98785e-014 3.33958e-014
lhumerus -32.1781 -21.6593 73.2452
lradius 72.4542
lwrist 23.946
lhand -18.6196 2.94576
lfingers 7.12502
lthumb 7.6723 32.7866
rfemur -68.579 -3.09808 17.7826
rtibia 108.331
rfoot 25.4258 8.49436
rtoes 4.64544
lfemur -34.7528 16.7235 -21.1686
ltibia 42.2552
lfoot -17.8967 -5.08487
ltoes 23.0782
446
root 1.50362 16.9304 -7.40049 11.9889 -4.35024 -3.23507
lowerback 9.90232 -0.876126 -3.32455
upperback 3.22487 -1.57849 -3.30348
thorax -2.20054 -0.78072 -1.3699
lowerneck -7.74106 2.55164 6.1084
upperneck 0.792338 2.77786 1.7685
head 1.625 1.45842 -0.375117
rclavicle 1.27222e-014 0
rhumerus -33.5213 6.71491 -102.967
rradius 64.3657
rwrist -3.91452
rhand -37.4634 -30.6352
rfingers 7.12502
rthumb -10.5217 299.648
lclavicle 1.27222e-014 0
lhumerus -30.8243 -22.2887 72.233
lradius 72.3828
lwrist 24.5
lhand -18.8667 2.99661
lfingers 7.12502
lthumb 7.43378 32.846
rfemur -69.4849 -2.93055 17.9336
rtibia 107.497
rfoot 25.5092 8.96946
rtoes 4.84619
lfemur -33.8061 16.2944 -21.3353
ltibia 41.8436
lfoot -18.1228 -4.62655
ltoes 22.8627
447
root 1.53485 16.9523 -7.30977 11.7198 -4.42161 -2.95872
lowerback 9.82441 -0.936672 -3.04086
upperback 3.20388 -1.63597 -3.54604
thorax -2.19496 -0.808713 -1.77542
lowerneck -7.63799 2.53806 6.02986
upperneck 0.945966 2.76402 1.95181
head 1.65159 1.45892 -0.304734
rclavicle -1.43125e-014 4.77083e-015
rhumerus -33.8908 5.87712 -103.209
rradius 64.6366
rwrist -4.09
rhand -37.8236 -31.0579
rfingers 7.12502
rthumb -10.8691 299.243
lclavicle -1.43125e-014 4.77083e-015
lhumerus -29.2771 -22.7727 71.1979
lradius 72.0022
lwrist 24.9516
lhand -19.0272 2.95558
lfingers 7.12502
lthumb 7.2789 32.8104
rfemur -70.2776 -2.75095 18.0615
rtibia 106.495
rfoot 25.4297 9.3798
rtoes 5.24124
lfemur -32.8676 15.859 -21.5235
ltibia 41.4583
lfoot -18.3629 -4.15492
ltoes 22.7071
448
root 1.56699 16.9713 -7.21858 11.4431 -4.53631 -2.66971
lowerback 9.7352 -0.976692 -2.7489
upperback 3.18004 -1.66632 -3.81151
thorax -2.18742 -0.823371 -2.21326
lowerneck -7.53061 2.50976 5.91369
upperneck 1.11478 2.73141 2.19423
head 1.68038 1.45162 -0.210069
rclavicle 2.62396e-014 4.45278e-014
rhumerus -34.2843 5.16985 -103.44
rradius 64.774
rwrist -4.06227
rhand -38.1479 -31.1226
rfingers 7.12502
rthumb -11.1819 299.195
lclavicle 2.62396e-014 4.45278e-014
lhumerus -27.563 -23.0747 70.1721
lradius 71.2762
lwrist 25.2171
lhand -19.1433 2.92
lfingers 7.12502
lthumb 7.16679 32.7786
rfemur -70.9648 -2.55333 18.1689
rtibia 105.298
rfoot 25.3048 9.73205
rtoes 5.77161
lfemur -31.8559 15.4519 -21.736
ltibia 40.9136
lfoot -18.5096 -3.70316
ltoes 22.623
449
root 1.59956 16.9876 -7.12711 11.1555 -4.69842 -2.35354
lowerback 9.63708 -0.99042 -2.48127
upperback 3.15819 -1.66487 -4.0997
thorax -2.17235 -0.822411 -2.66565
lowerneck -7.42056 2.46362 5.77017
upperneck 1.2847 2.67513 2.49128
head 1.70754 1.43365 -0.0945556
rclavicle -1.82882e-014 2.06736e-014
rhumerus -34.6995 4.60821 -103.651
rradius 64.7852
rwrist -3.90833
rhand -38.4542 -30.9718
rfingers 7.12502
rthumb -11.4773 299.362
lclavicle -1.82882e-014 2.06736e-014
lhumerus -25.7165 -23.1679 69.1864
lradius 70.1935
lwrist 25.2207
lhand -19.2377 2.97126
lfingers 7.12502
lthumb 7.07569 32.833
rfemur -71.532 -2.34062 18.2375
rtibia 103.948
rfoot 25.1221 10.0382
rtoes 6.28142
lfemur -30.842 15.0942 -21.9914
ltibia 40.3837
lfoot -18.6696 -3.28172
ltoes 22.6096
450
root 1.63211 17.0007 -7.03552 10.8551 -4.91537 -2.00629
lowerback 9.53225 -0.970345 -2.25048
upperback 3.14032 -1.62272 -4.40996
thorax -2.14725 -0.801348 -3.12601
lowerneck -7.31452 2.39831 5.60441
upperneck 1.45211 2.59264 2.8339
head 1.73366 1.40353 0.0380451
rclavicle 2.38542e-015 4.77083e-015
rhumerus -35.1333 4.19814 -103.839
rradius 64.6753
rwrist -3.70196
rhand -38.7663 -30.6864
rfingers 7.12502
rthumb -11.7783 299.665
lclavicle 2.38542e-015 4.77083e-015
lhumerus -23.7982 -23.0466 68.2735
lradius 68.7873
lwrist 24.9093
lhand -19.3179 3.17588
lfingers 7.12502
lthumb 6.99826 33.0402
rfemur -71.9842 -2.10193 18.2596
rtibia 102.45
rfoot 24.9817 10.3203
rtoes 6.75986
lfemur -29.8264 14.8177 -22.2983
ltibia 39.8636
lfoot -18.8395 -2.9101
ltoes 22.6642
451
root 1.66437 17.0115 -6.94409 10.5454 -5.1868 -1.63212
lowerback 9.42007 -0.912204 -2.05543
upperback 3.12442 -1.53385 -4.73688
thorax -2.11229 -0.75708 -3.59006
lowerneck -7.20643 2.31329 5.42268
upperneck 1.60947 2.48399 3.20212
head 1.75605 1.36055 0.180321
rclavicle 1.90833e-014 -1.90833e-014
rhumerus -35.5887 3.94716 -104.004
rradius 64.4571
rwrist -3.50443
rhand -39.1255 -30.4722
rfingers 7.12502
rthumb -12.1247 299.899
lclavicle 1.90833e-014 -1.90833e-014
lhumerus -21.8761 -22.7207 67.4699
lradius 67.121
lwrist 24.2719
lhand -19.4197 3.5635
lfingers 7.12502
lthumb 6.90003 33.4311
rfemur -72.3229 -1.84121 18.2406
rtibia 100.801
rfoot 24.976 10.6012
rtoes 7.29037
lfemur -28.8124 14.6314 -22.6525
ltibia 39.3469
lfoot -19.0151 -2.59555
ltoes 22.7872
